<svg xmlns="http://www.w3.org/2000/svg" viewBox="0 0 1210.23 977.18"><defs><style>.cls-1{fill:none;}.cls-2,.cls-5{fill:#4a1405;}.cls-3{fill:#c4823d;}.cls-4{fill:#fff;}.cls-5{font-size:136.19px;font-family:SunsetBoulevard, Sunset Boulevard;}.cls-6{font-size:30.09px;fill:#dcb88f;font-family:CenturySchoolbook-Bold, Century Schoolbook;font-weight:700;}</style></defs><g id="Background"><rect class="cls-1" width="1178.5" height="977.18"/></g><g id="Symbol"><path class="cls-2" d="M663.66,201.11s11.47-9.66,6.49-31.25c0,0,2.27,12.83-15.54,25.81Z" transform="translate(0 0)"/><path class="cls-2" d="M589.8,187.63c-175.32,0-317.45,142.13-317.45,317.45A320,320,0,0,0,277,559.23c207-35.89,419.11-37.26,626.12-2.78a318.62,318.62,0,0,0,4.16-51.37C907.25,329.76,765.12,187.63,589.8,187.63ZM350.67,713.85A317.43,317.43,0,0,0,829,713.8,1654.71,1654.71,0,0,0,350.67,713.85Z" transform="translate(0 0)"/><path class="cls-3" d="M799.84,447.71a204.9,204.9,0,0,0-17.4-44.39,208.53,208.53,0,0,0-40.24-52.88,198,198,0,0,0-17.71-15.07,211.65,211.65,0,0,1,58.58,76.17A204.36,204.36,0,0,1,801,504.77a202.1,202.1,0,0,1-5,37.1c2.1.22,4.21.43,6.31.66a207.57,207.57,0,0,0-2.42-94.82ZM394.33,408.42a206.8,206.8,0,0,0-16.86,136.1c2.16-.25,4.32-.47,6.48-.71A204.19,204.19,0,0,1,400.5,403.08a212.68,212.68,0,0,1,55.62-68.51A209.3,209.3,0,0,0,394.33,408.42Z" transform="translate(0 0)"/><path class="cls-2" d="M194.6,752.58s88.09-15.69,154.5,16.31a420.63,420.63,0,0,0-23.71-51S243.12,728.62,194.6,752.58Z" transform="translate(0 0)"/><path class="cls-2" d="M987.88,752.58s-88.09-15.69-154.5,16.31a420.63,420.63,0,0,1,23.71-51S939.36,728.62,987.88,752.58Z" transform="translate(0 0)"/><path class="cls-3" d="M664.66,286.76l17-59.16L660,285.23C661.59,285.73,663.13,286.23,664.66,286.76Zm-13-67.35L636.25,279c1.59.33,3.17.68,4.75,1Zm-46.75-6.22-5.6,61.35c1.62.06,3.24.15,4.86.25Zm16,1.27-9,60.93c1.62.16,3.23.33,4.84.52Zm15,2-12.08,60.38c1.6.24,3.2.5,4.8.77ZM652.55,283l13.73-60L647.86,281.7C649.43,282.11,651,282.53,652.55,283Zm66.62,31,31.91-52.7-36,50Q717.16,312.62,719.17,314Zm-43.35-23.07,20-58.21-24.56,56.45Q673.57,290,675.82,290.91Zm33.32,16.64,29.15-54.26L705,305.08Q707.07,306.29,709.14,307.55Zm-11-6.25,26.12-55.78L693.8,299.05Q696,300.15,698.11,301.3ZM687.45,296l23.21-57L683,294C684.51,294.61,686,295.29,687.45,296Zm-202.33,3.42L454.51,246l26.3,55.67C482.24,300.89,483.67,300.13,485.12,299.39ZM496.58,294l-27.63-55,23.21,57C493.62,295.28,495.1,294.61,496.58,294Zm11-4.52-24.76-56.36,20.24,58.13C504.57,290.6,506.08,290,507.59,289.43Zm221.87,32,34.77-50.9-38.68,48Q727.53,319.91,729.46,321.4ZM474.65,305.08l-33.33-51.79,29.14,54.26Q472.55,306.29,474.65,305.08Zm44.91-19.85L497.94,227.6l17,59.15C516.48,286.23,518,285.73,519.56,285.23Zm35.52-8.3L542.8,216.6l7.49,61.12C551.88,277.44,553.48,277.17,555.08,276.93Zm24.48-2.36-5.81-61.33,1,61.6Q577.11,274.68,579.56,274.57Zm-11.88.82-9-60.93,4.12,61.45C564.45,275.72,566.06,275.55,567.68,275.39ZM543.36,279,528,219.41,538.61,280C540.18,279.69,541.76,279.33,543.36,279ZM531,281.9l-18.63-58.66,13.93,59.94C527.87,282.73,529.44,282.31,531,281.9Zm61.23-7.54L589.8,212.8l-2.43,61.56,2.43,0C590.62,274.33,591.43,274.35,592.24,274.36Zm146.5,54.49,37.37-49.05L735,325.75Q736.88,327.28,738.74,328.85Zm74.63,118.91c.41,1.57.79,3.15,1.16,4.74l59.3-17.11Zm7.13,53.43L882.19,497l-61.82-.69C820.43,497.93,820.48,499.56,820.5,501.19Zm-.13,12.68,61.82-.8L820.5,509C820.48,510.62,820.43,512.25,820.37,513.87Zm-4.21-53.74c.32,1.59.62,3.19.9,4.79l60.17-13.82Zm2.65,16.56L879.64,466l-61.48,5.88C818.4,473.46,818.61,475.07,818.81,476.69Zm1.2,12.63L881.36,482l-61.74,2.49C819.77,486.07,819.9,487.69,820,489.32ZM359.65,521.66l-61.35,7.47,61.75-2.6C359.9,524.91,359.77,523.29,359.65,521.66Zm1.15,11.84-60.9,10.61,61.55-5.78C361.22,536.72,361,535.11,360.8,533.5Zm457.36,4.83,61.54,5.78L818.81,533.5C818.61,535.11,818.39,536.73,818.16,538.33Zm1.46-12.59,61.79,2.39L820,520.87C819.89,522.5,819.77,524.12,819.62,525.74ZM359.27,546.83l3.47-.44-.06-.35ZM765.15,355.1l44.77-42.42-48,38.75Q763.56,353.25,765.15,355.1Zm15,19.49,49-37.42L777.32,370.6C778.26,371.92,779.2,373.25,780.12,374.59Zm-7.47-10.25,46.91-40.07-49.93,36.24Q771.16,362.4,772.65,364.34Zm-308.8-52.62-36.14-49.89,32.09,52.59Q461.81,313.05,463.85,311.72Zm292.8,34L799,300.88,753.24,342.2C754.39,343.35,755.52,344.51,756.65,345.69Zm-8.45-8.39,40-46.93L744.63,334Q746.43,335.63,748.2,337.3Zm48,64.49c.73,1.45,1.45,2.91,2.14,4.38l54.31-29.24Zm5.37,11.49q1,2.24,1.9,4.49l55.83-26.2Zm4.46,11q.86,2.28,1.65,4.59l57.13-23.31Zm4.12,12c.48,1.55.94,3.1,1.39,4.67l58.32-20.14Zm-23.52-51.75,50.89-34.84L784,380.43C784.89,381.8,785.75,383.18,786.61,384.56Zm4,6.73q1.2,2.11,2.36,4.26l52.72-32ZM612.28,734.74l9.12,61.33-4.25-61.86C615.52,734.41,613.9,734.58,612.28,734.74Zm-53.06,61.43,8.92-61.36c-1.63-.15-3.25-.32-4.87-.51Zm15,1.19L580,735.61c-1.64-.07-3.27-.16-4.89-.26Zm25.39-61.75,5.75,61.75-.85-62C602.89,735.45,601.26,735.54,599.62,735.61Zm24.43-2.31,12.28,60.75-7.44-61.53C627.29,732.79,625.68,733.06,624.05,733.3Zm-36.29,2.51,2.55,62,2.35-62c-.95,0-1.9,0-2.86,0Zm-44.48,58.24,12.27-60.75c-1.62-.24-3.23-.51-4.84-.78Zm-50.62-79.62-23.25,57.42,27.71-55.4C495.62,715.79,494.14,715.12,492.66,714.43Zm46.41,15.79-10.59,61.06,15.38-60C542.25,730.93,540.66,730.58,539.07,730.22Zm-35.52-11.06-20.26,58.53,24.82-56.75Q505.81,720.07,503.55,719.16Zm11.89,4.42-17,59.55,21.66-58C518.53,724.61,517,724.11,515.44,723.58Zm11.33,3.54-13.92,60.36L531.5,728.4C529.92,728,528.34,727.56,526.77,727.12ZM694,711l30.71,53.8L698.3,708.77C696.86,709.54,695.41,710.3,694,711Zm23.12-9.68L751.49,749l-28.72-47.25C720.87,701.61,719,701.49,717.08,701.35Zm-12,3.65,33.62,52L709.32,702.5C707.93,703.35,706.52,704.18,705.11,705Zm29.63-2.2,29.91,37-25.06-36.53Zm40.81,4.07,13,13L777.66,707.1Zm-22.4-2.39,23.33,26-19.55-25.58C755.67,704.75,754.41,704.6,753.15,704.48Zm-81.66,16.46,24.82,56.75-20.26-58.53C674.55,719.77,673,720.36,671.49,720.94Zm-11.2,3.91,21.87,58-17.22-59.51C663.39,723.84,661.85,724.35,660.29,724.85Zm-12.18,3.55,18.65,59.08-13.93-60.36C651.27,727.56,649.69,728,648.11,728.4Zm-11.56,2.69,15.58,60-10.79-61C639.75,730.41,638.15,730.76,636.55,731.09ZM481.31,708.77l-26.37,56.06L485.65,711C484.19,710.3,482.75,709.54,481.31,708.77Zm201.92,7.35,27.9,55.31-23.45-57.34C686.21,714.78,684.72,715.46,683.23,716.12ZM471,702.92l-29.22,54.62L475.2,705.4C473.78,704.59,472.38,703.76,471,702.92ZM395.17,381.09,341.6,350.57l51,34.66Q393.86,383.15,395.17,381.09Zm7.12-10.49-51.83-33.43,49,37.42Q400.87,372.58,402.29,370.6Zm51.76-52.11-38.68-48,34.78,50.89Q452.09,319.92,454.05,318.49Zm-77.89,99.28q.93-2.25,1.89-4.49l-57.72-21.71Zm4.79-10.9q1-2.21,2.12-4.38l-56.51-24.66ZM444,326.23l-41.26-45.79,37.52,48.91C441.51,328.3,442.75,327.26,444,326.23ZM435,334,391.4,290.37l40,46.93C432.59,336.18,433.77,335.07,435,334Zm-25.5,27.12-50-36.05,47,39.89Q408,363,409.48,361.11Zm-37.8,68.53c.53-1.54,1.07-3.07,1.64-4.59L314.5,406.54Zm54.14-86.88L379.91,301.6l42.51,44.65Q424.1,344.48,425.82,342.76Zm-8.15,8.67-48-38.75,44.77,42.42C415.51,353.86,416.59,352.64,417.67,351.43Zm-31,44.12q1.17-2.15,2.37-4.26L334,363.56Zm36,309.38-19.51,25.53,23.28-25.93ZM403.29,707l-11.5,13.54,13.71-13.77ZM368.08,441c.46-1.57.91-3.12,1.4-4.67l-59.71-15.47Zm-9,68-61.68,4.08,61.82.8C359.18,512.25,359.13,510.62,359.1,509Zm82,194.19-25.32,37.19L446,702.74Zm15.71-1.38L428.11,749l34.39-47.64C460.61,701.53,458.72,701.65,456.82,701.8ZM362.54,464.92c.28-1.6.59-3.2.9-4.79l-61.06-9Zm-3.34,32.19-61.78.9,61.67,4C359.11,500.36,359.15,498.73,359.2,497.11Zm5.7-43.85c.36-1.59.75-3.17,1.15-4.74l-60.49-12.16ZM360,484.45,298.25,482l61.35,7.36C359.71,487.69,359.84,486.07,360,484.45Zm1.35-11.82L299.85,467l60.85,10.5C360.9,475.86,361.11,474.24,361.33,472.63Z" transform="translate(0 0)"/><path class="cls-2" d="M677.76,755A1130.8,1130.8,0,0,0,491,753.77l-1.68-27.41-1.45-23.56a1170.81,1170.81,0,0,1,193.38,1.28Z" transform="translate(0 0)"/><path class="cls-2" d="M493.72,700.49c-10.83-2.08-113.47,8.85-113.47,8.85l25.57,31.35c45-28.75,84.15-29,84.15-29Z" transform="translate(0 0)"/><path class="cls-2" d="M677.7,700.49c10.83-2.08,121.81,10.21,121.81,10.21l-33.91,30c-45-28.75-84.15-29-84.15-29Z" transform="translate(0 0)"/><path class="cls-3" d="M665.27,407c-16,6.26-108.23,17.19-135.1-3.43,24.47,7.87,71,5,89,3,30.77-3.36,29-14.73,8.48-20.44-23-6.33-62.26-7-93-4.84-41,3.34-64,12.36-64,22.8,2.56,12.92,48.65,24.36,102.43,26,66.58,1.18,120.36-10.65,128-25.95,5.12-12.23-28.16-23.42-84.5-25.73,35.85,5.82,69.14,10.86,69.14,21.31C683.2,412,649.91,424,593.57,426c-64,1.91-120.36-10.84-110.11-26.11,5.11-6.71,20.48-12.73,48.65-15.56C490,391.44,475.7,402.67,513.51,413,556.77,424.84,637.18,423.15,665.27,407Z" transform="translate(0 0)"/><path class="cls-4" d="M683.78,381s45.32,10.08,28.91,34.33c-11,16.2-58.48,26.57-127.23,27.21-63.58.59-105.35-7.16-125.07-25-5.2-4.71-7.61-10.94-6-17.62,4.38-18.54,44.23-28.53,84.57-28.91,0,0-54.16-4.94-82.31,14.69-33.49,23.36,7.59,128.06,37,139.12,4.95,1.86,11.14,6.59,12.81,3.43,27.12,2.84,47.15-2.89,79.95-3.19,32-.3,57.06,6.64,78.77,1.32,3.65,5.19-.93,5.28,14.69-5.63C696.4,509.16,726.43,455,729.27,422,732.3,386.68,683.78,381,683.78,381Z" transform="translate(0 0)"/><path class="cls-4" d="M743.66,424.79s8.06-.1,22-.23,15.77,60.05-72.19,88.06c0,0,44.33-20.51,51.71-57.77,5.62-3.13,10.47-6.08,16.23-9.75l-22.34.23Z" transform="translate(0 0)"/><path class="cls-2" d="M715.8,260.12c-16.63-15.37-42.13-4.32-37-22.81,11.93-43.23-160.19-11.51-105.51-30.07,57.31-19.46,29.06-1.48,42.35-1.89,59.95-1.83,36.23-.22,36.23-.22-5.6,12.42-3-18.35-52.45-15.89-33.47,1.66-87.9,15.9-87.34,34.07.38,12.24,7.84,26.62,75.2,22.44,42.59-2.65,65.45,30.18,54.18,42.8-3.23,3.62-3.36,5.78-10.14,6.43,16.91,14.35,40.45,24.38,51.77,17.66,14.69-8.72,2.86-21.6,2.86-21.6s17.55,19.53-2.45,28.67C661,330,611.12,295.12,602.15,288.46c-4.53-2.09-9.12-8.86-14.3-12.09-72.54-45.31-172.52-22.25-154.58,31.87,14.64,44.16,109.27,60.93,128.91,65.35-2.45.12-4.9.29-7.28.53-15.12,1.52-23.21,1.83-32.77,7.66-21.83,13.3,55.57,26.19,94.8,17.91S575.24,385.08,558.77,386c-14.45.78-12.29-9.88,30.76-12.05,31-1.57,49,2.28,49,2.28S496.63,329.37,502,295.61c3.73-23.29,51.43-1.25,51.43-1.25s-37.73-15.31-44.49.42c-2.86,6.64,10.61,17.45,27.56,22.78,5.55-40.36,69.64,26.95,143.76,28.8C741.22,347.88,742.7,285,715.8,260.12Z" transform="translate(0 0)"/><path class="cls-4" d="M711.62,264.65C695,249.28,670.2,260.5,675.3,242c11.92-43.23-156.73-16.2-102-34.76,57.31-19.46,29.06-1.48,42.35-1.89,59.95-1.83,55.95-38.81,55.95-38.81-5.6,12.42-22.68,20.24-72.17,22.7-33.47,1.66-87.9,15.9-87.34,34.07.38,12.24,11.43,19.95,78.79,15.76,42.59-2.64,66.76,36.44,55.49,49.06-3.23,3.61-8.26,6.2-15,6.85,16.91,14.35,40.45,24.38,51.77,17.66,14.69-8.72,2.86-21.6,2.86-21.6s17.55,19.53-2.45,28.67C661,330,611.12,295.12,602.15,288.46a127.89,127.89,0,0,1-14.52-7.92c-64.57-40.61-162.1-26.63-144.16,27.49,14.64,44.16,99.07,61.14,118.71,65.56-2.45.12-4.9.29-7.28.53-15.12,1.52-23.21,1.83-32.77,7.66-21.83,13.3,55.57,26.19,94.8,17.91S575.24,385.08,558.77,386c-14.45.78-12.29-9.88,30.76-12.05,31-1.57,49.17.57,49.17.57S496.63,329.37,502,295.61c3.73-23.29,51.43-1.25,51.43-1.25s-37.73-15.31-44.49.42c-2.86,6.64,10.61,17.45,27.56,22.78,5.55-40.36,62.48,22.1,136.6,23.95C734.07,343,738.52,289.51,711.62,264.65Z" transform="translate(0 0)"/><path class="cls-2" d="M236.51,569.76c0,.09,12.77-8.94,40.39-17.77,4.64-1.48,16.36.37,21.85-1.06,39.58-7.5,90.54-20.3,157.73-27.16a1383.35,1383.35,0,0,1,230-4.19c41.94,2.79,84.31,9.72,127.63,17.6,1.59.29,2.49.86,4.07,1.15,25.42,4.73,51.83,7.52,77,14.89,2.32.68,6.24-1.38,8.6-.58A252,252,0,0,1,943,570.07c0,.12-21.29-6.65-59.46-14.16s-93.27-15.35-159.84-19.69a1978.09,1978.09,0,0,0-227.9-1.4C454.15,537,411.12,540.47,367.57,546S280,558.91,236.51,569.76Z" transform="translate(0 0)"/><text class="cls-5" transform="translate(359.04 681.41) rotate(-6.7) scale(1.07 1)">C</text><text class="cls-5" transform="translate(411.72 675.24) rotate(-4.86) scale(1.07 1)">a</text><text class="cls-5" transform="matrix(1.07, -0.06, 0.06, 1, 462.45, 670.94)">f</text><text class="cls-5" transform="translate(512.15 668.17) rotate(-1.81) scale(1.07 1)">é</text><text class="cls-5" transform="matrix(1.07, -0.01, 0.01, 1, 560.82, 666.7)"> </text><text class="cls-5" transform="matrix(1.07, 0.01, -0.01, 1, 596.52, 666.16)">D</text><text class="cls-5" transform="translate(654.22 666.75) rotate(1.92) scale(1.07 1)">a</text><text class="cls-5" transform="translate(705.24 668.43) rotate(3.24) scale(1.07 1)">s</text><text class="cls-5" transform="matrix(1.07, 0.09, -0.08, 1, 759.79, 671.49)">h</text><text/><rect class="cls-2" x="531.94" y="548.25" width="18.68" height="8.59" transform="translate(-194.6 790.83) rotate(-63.53)"/></g><g id="Text"><text class="cls-6" transform="translate(501.55 736.7)">Desde 2021</text></g></svg>